<svg width="40" height="191" viewBox="0 0 40 191" fill="none" xmlns="http://www.w3.org/2000/svg">
<path d="M31.9197 189.009C31.9197 178.397 30.2531 166.814 32.9945 156.458C34.1594 152.057 36.8529 148.218 37.3705 143.56C37.8679 139.084 39.2474 129.583 36.8331 125.749C34.293 121.714 30.0631 118.69 27.0062 115.077C20.7576 107.692 18.1005 101.561 18.1005 91.7381C18.1005 86.8541 19.6672 85.0093 22.2463 80.9131C24.5261 77.2923 22.8702 73.0106 25.7011 69.5507C31.0375 63.0284 26.297 56.12 23.9353 49.7433C22.8171 46.7243 21.9178 43.8583 20.1734 41.1447C18.0492 37.8404 14.2521 35.3461 12.88 31.7784C10.4482 25.4558 11.5648 21.6182 11.191 14.8884C10.8595 8.92223 1.51758 9.52519 1.51758 2.45117" stroke="white" stroke-width="3" stroke-linecap="round" stroke-linejoin="round"/>
</svg>
