<svg width="177" height="163" viewBox="0 0 177 163" fill="none" xmlns="http://www.w3.org/2000/svg">
<path d="M2.32581 160.769C7.50434 154.335 29.8024 125.883 40.1901 125.271C45.7454 124.945 54.3972 123.907 59.6481 125.797C65.1106 127.764 67.4428 134.346 72.2695 137.104C79.7434 141.375 101.719 146.12 101.719 131.188C101.719 125.966 115.272 115.805 110.002 115.805C102.733 115.805 98.4855 111.296 92.2534 108.18C84.2636 104.185 82.7873 107.196 82.7873 96.8733C82.7873 89.866 75.6878 85.7221 75.6878 80.3077C75.6878 75.0864 90.1836 70.8815 94.094 68.4751C101.647 63.827 106.57 56.3438 113.552 50.8577C125.584 41.4041 137.681 35.3421 150.102 28.2443C159.567 22.8354 165.154 8.83072 175.081 2.21265" stroke="white" stroke-width="3" stroke-linecap="round" stroke-linejoin="round"/>
</svg>
