<svg width="148" height="171" viewBox="0 0 148 171" fill="none" xmlns="http://www.w3.org/2000/svg">
<path d="M140.704 168.948C137.162 167.48 132.625 166.124 130.416 162.653C129.21 160.759 130.346 158.164 128.266 156.818C125.095 154.766 122.788 152.546 119.821 150.216C115.058 146.473 111.389 145.279 105.618 143.997C101.211 143.018 101.809 140.512 100.321 137.164C97.8729 131.656 94.6733 126.53 92.3366 121.272C90.4907 117.119 74.9487 111.569 71.6079 115.745C70.5516 117.065 62.4139 119.199 60.5526 119.199C56.4275 119.199 52.2343 119.428 48.1154 119.199C43.6695 118.952 42.9274 114.289 46.7335 112.597C51.8685 110.315 50.8792 108.076 50.8792 102.079C50.8792 97.8465 45.804 95.3896 43.2019 92.1753C40.4618 88.7905 38.2554 83.5603 34.2963 81.5807C25.9589 77.412 12.078 79.6425 5.27608 73.5963C-0.52581 68.4391 3.17051 58.4879 5.5064 51.8696C5.84351 50.9144 9.61333 42.618 10.4966 43.5013C11.3427 44.3474 10.8304 46.8353 11.4947 48.0309C13.0159 50.769 16.4427 54.5343 19.0952 55.9385C21.9261 57.4373 37.4845 58.9036 38.3652 54.9405C39.0434 51.8888 41.9758 45.6572 43.9696 43.1942C48.5609 37.5227 47.3207 30.5089 54.4108 25.9971C61.717 21.3476 70.6463 18.5363 77.4426 13.0992C80.6245 10.5538 94.3583 12.7921 98.7088 12.7921C108.514 12.7921 119.48 14.4023 127.499 10.0283C133.143 6.94947 139.854 1.73682 146.231 1.73682" stroke="white" stroke-width="3" stroke-linecap="round" stroke-linejoin="round"/>
</svg>
