<svg width="176" height="140" viewBox="0 0 176 140" fill="none" xmlns="http://www.w3.org/2000/svg">
<path d="M31.7307 129.143C28.053 129.143 24.4794 128.425 20.7524 128.425C16.9485 130.951 14.2312 127.919 12.2583 134.172C11.5915 136.286 4.76926 139.333 4.2049 137.366C3.65754 135.457 3.21783 134.873 2.1615 133.294C1.49386 132.297 3.08939 128.889 3.44363 127.786C4.76216 123.681 6.06607 117.811 9.57383 115.093C12.8266 112.573 14.9476 106.009 9.6139 104.077C7.26684 103.226 13.3326 97.8486 14.1014 95.934C15.2281 93.1279 16.967 90.0078 14.6222 87.1528C12.7499 84.873 7.0627 87.9678 4.00456 86.9133C1.06979 85.9012 10.0272 83.2914 11.2166 82.6025C14.0034 80.9884 19.2934 80.2874 22.4753 80.2874C24.4521 80.2874 26.4883 80.4251 28.4452 80.1278C29.0257 80.0396 34.4409 77.75 31.5704 77.4135C27.2044 76.9018 24.9675 75.3496 20.3918 77.4535C20.0465 77.6122 14.2743 79.5281 15.1431 78.2917C15.7887 77.3729 17.7182 72.847 18.7491 73.4221C24.2904 76.5134 28.5214 69.686 34.0946 68.8318C36.4572 68.4697 48.4767 63.9513 50.1614 66.6365C52.1823 69.8578 63.0396 60.8941 65.4268 58.8132C70.5498 54.3476 81.7464 53.0794 82.6955 45.0426C83.0676 41.8919 80.75 35.8755 83.8174 34.1458C90.2801 30.5015 94.6051 25.1531 99.3633 19.537C102.705 15.5927 105.179 1.48732 111.263 2.01439C117.381 2.54435 122.894 3.48112 127.73 7.40289C129.986 9.2316 127.162 9.28967 127.53 11.6738C127.827 13.5932 129.419 15.7997 130.535 17.3816C131.879 19.2865 133.359 21.4349 134.382 23.5285C134.711 24.2025 134.381 25.3839 134.742 25.9234C135.243 26.672 136.062 24.6584 136.866 24.247C137.73 23.8039 138.969 23.7846 139.71 23.1693C140.926 22.16 140.942 20.2461 142.796 20.8143C143.978 21.1767 146.329 22.2844 147.523 21.9319C152.016 20.6057 150.568 10.9843 150.568 7.52264C150.568 4.93851 158.289 6.42291 159.864 6.68442C164.707 7.48858 167.209 10.7004 168.759 15.1464C170.414 19.8941 168.911 24.981 170.442 29.5556C173.222 37.8642 176.544 45.9875 171.002 53.8638C169.634 55.8083 165.855 58.3551 165.714 60.8888C165.626 62.4685 165.776 64.0571 165.674 65.6387C165.412 69.6831 165.224 74.4275 163.47 78.1719C161.279 82.8482 157.302 87.2637 152.572 89.4678C148.613 91.3127 144.875 94.2507 143.517 98.6482C142.177 102.985 139.66 105.854 136.104 108.667C132.785 111.293 129.472 113.936 126.128 116.53C124.353 117.907 119.944 122.715 117.313 122.278C104.021 120.071 89.6672 127.122 77.7273 131.857C73.6429 133.477 64.7544 135.266 60.779 132.736C56.6832 130.129 51.1298 123.42 45.5136 124.912C40.5031 126.243 37.2073 129.143 31.7307 129.143Z" stroke="white" stroke-width="3" stroke-linecap="round" stroke-linejoin="round"/>
</svg>
