<svg width="218" height="147" viewBox="0 0 218 147" fill="none" xmlns="http://www.w3.org/2000/svg">
<path d="M3.67453 144.61C3.67453 137.164 -1.22963 105.916 5.7474 105.916C13.4043 105.916 18.9795 111.34 25.0942 105.225C29.4628 100.856 35.0925 100.375 39.2972 97.3174C44.0425 93.8663 52.9286 95.3356 58.644 92.0969C62.1254 90.1241 64.7414 87.4166 68.6244 86.2621C70.6809 85.6508 75.0273 84.936 76.6088 83.4983C79.124 81.2118 79.9164 72.7165 81.6758 69.4489C83.3535 66.3332 84.4394 64.0919 88.6622 63.1535C94.4272 61.8724 103.895 59.5902 108.086 55.3994C116.677 46.8077 117.851 33.1442 125.283 23.3083C128.932 18.4792 132.168 12.7555 137.72 10.2569C143.3 7.74598 149.634 8.85044 155.071 6.41827C159.978 4.22291 170.729 -1.03338 175.032 4.3454C180.289 10.9174 180.559 17.9938 180.559 26.456C180.559 33.5429 189.133 37.9743 193.764 42.348C198.424 46.7485 202.459 51.1645 207.891 54.7852C214.105 58.9279 216.489 61.3833 216.489 69.2953C216.489 76.9994 213.89 80.6702 210.961 87.2602C206.723 96.7963 212.195 111.666 206.816 119.735" stroke="white" stroke-width="3" stroke-linecap="round" stroke-linejoin="round"/>
</svg>
