<svg width="165" height="170" viewBox="0 0 165 170" fill="none" xmlns="http://www.w3.org/2000/svg">
<path d="M2 168.363C11.5525 166.192 17.2349 157.122 27.479 157.122C32.5998 157.122 37.7205 157.122 42.8413 157.122C47.2975 157.122 53.7012 157.878 57.0796 154.499C58.2081 153.371 60.3062 152.584 61.0347 151.127C62.1305 148.935 61.4634 148.396 63.4493 146.631C64.85 145.386 67.2676 145.881 69.0281 145.881C70.8636 145.881 71.1769 143.121 73.1913 142.884C74.5729 142.721 75.0423 140.932 76.5635 140.594C78.8227 140.092 81.3264 138.54 83.2663 137.305C84.8247 136.313 88.0438 136.324 88.179 133.891C88.2902 131.889 87.8679 129.816 88.5536 127.896C89.7771 124.471 95.2885 121.421 95.6728 118.154C96.2085 113.6 103.287 106.823 107.413 105.998C110.715 105.337 114.795 104.665 118.154 104.665C121.613 104.665 129.969 104.105 132.018 100.918C133.664 98.3581 135.635 95.2473 137.638 93.0083C139.164 91.3027 139.466 88.3108 140.636 86.2639C143.074 81.9976 140.636 78.2336 140.636 73.4411C140.636 70.0919 140.459 66.7189 141.01 63.4077C141.934 57.8686 140.949 49.9856 144.549 45.4642C147.752 41.4421 152.307 40.4719 156.289 37.5957C159.211 35.4853 158.621 32.1862 158.621 29.0194C158.621 24.028 158.644 19.9937 160.12 15.1975C161.55 10.5504 163.117 7.05072 163.117 2" stroke="white" stroke-width="3" stroke-linecap="round" stroke-linejoin="round"/>
</svg>
