<svg width="53" height="53" viewBox="0 0 53 53" fill="none" xmlns="http://www.w3.org/2000/svg">
<g filter="url(#filter0_d)">
<circle cx="26.5" cy="22.5" r="22.5" fill="white"/>
</g>
<path d="M27.0469 10C20.4558 10 15 15.362 15 21.9531C15 28.5442 20.4558 34 27.0469 34C33.638 34 39 28.5442 39 21.9531C39 15.362 33.638 10 27.0469 10ZM28.4531 28.375C28.4531 29.1503 27.8217 29.7812 27.0469 29.7812C26.2716 29.7812 25.6406 29.1503 25.6406 28.375V21.25C25.6406 20.4747 26.2716 19.8438 27.0469 19.8438C27.8217 19.8438 28.4531 20.4747 28.4531 21.25V28.375ZM27.0469 17.0312C26.2716 17.0312 25.6406 16.4003 25.6406 15.625C25.6406 14.8497 26.2716 14.2188 27.0469 14.2188C27.8217 14.2188 28.4531 14.8497 28.4531 15.625C28.4531 16.4003 27.8217 17.0312 27.0469 17.0312Z" fill="#E0E0E0"/>
<defs>
<filter id="filter0_d" x="0" y="0" width="53" height="53" filterUnits="userSpaceOnUse" color-interpolation-filters="sRGB">
<feFlood flood-opacity="0" result="BackgroundImageFix"/>
<feColorMatrix in="SourceAlpha" type="matrix" values="0 0 0 0 0 0 0 0 0 0 0 0 0 0 0 0 0 0 127 0"/>
<feOffset dy="4"/>
<feGaussianBlur stdDeviation="2"/>
<feColorMatrix type="matrix" values="0 0 0 0 0 0 0 0 0 0 0 0 0 0 0 0 0 0 0.25 0"/>
<feBlend mode="normal" in2="BackgroundImageFix" result="effect1_dropShadow"/>
<feBlend mode="normal" in="SourceGraphic" in2="effect1_dropShadow" result="shape"/>
</filter>
</defs>
</svg>
