<svg width="16" height="24" viewBox="0 0 16 24" fill="none" xmlns="http://www.w3.org/2000/svg">
<path d="M10.2959 14.4348H13.0191V23.113C13.0191 23.6029 13.6298 24 14.3812 24C15.1339 24 15.7432 23.6029 15.7432 23.113L16.0001 3.98429e-09C11.1366 -0.000276918 10.2959 14.4348 10.2959 14.4348Z" fill="white"/>
<path d="M7.45617 0.0418167C7.09812 0.0418167 6.80768 0.231231 6.80853 0.464123V7.75216L5.836 7.75188V0.464123C5.836 0.231231 5.54514 0.0420936 5.18751 0.0418167C4.82946 0.0418167 4.53902 0.231231 4.53902 0.464123V7.75216H3.56649V0.464123C3.56564 0.231231 3.27563 0.0418168 2.918 0.0423706C2.5591 0.0420937 2.27036 0.231508 2.26951 0.4644V7.75216H1.29613V0.464123C1.29613 0.231231 1.00612 0.0418167 0.648493 0.0420936C0.28959 0.0420936 0 0.231231 0 0.4644V8.50206C0 8.73689 0.0531552 8.96314 0.144582 9.17886C0.493279 9.99827 1.45517 10.6507 2.69092 10.9118V23.1133C2.69092 23.6032 3.30157 24 4.05297 24C4.8048 24 5.41502 23.6032 5.41417 23.1133L5.41502 10.9118C6.65077 10.651 7.61266 9.99855 7.96136 9.17886C8.05364 8.96286 8.10509 8.73661 8.10594 8.50206V0.464123C8.10466 0.231231 7.8138 0.0420936 7.45617 0.0418167Z" fill="white"/>
</svg>
