<svg width="24" height="24" viewBox="0 0 24 24" fill="none" xmlns="http://www.w3.org/2000/svg">
<g clip-path="url(#clip0)">
<path d="M20.0152 10.9728H3.9873C3.9873 8.25864 6.18738 6.06024 8.89986 6.06024H10.2748V-0.0506401H13.7279V6.06024H15.1029C17.8154 6.06024 20.0152 8.25888 20.0152 10.9728Z" fill="#333333"/>
<path d="M12.8201 12.9322V12.9245C12.8201 12.4728 12.4546 12.1104 12.0015 12.1104C11.5484 12.1104 11.1826 12.4807 11.1826 12.9322C11.1826 13.3855 11.5481 13.751 12.0015 13.751C12.4546 13.751 12.8201 13.3853 12.8201 12.9322Z" fill="#333333"/>
<path d="M12.8201 19.7383V19.7213C12.8201 19.2682 12.4546 18.9103 12.0015 18.9103C11.5484 18.9103 11.1826 19.2852 11.1826 19.7383C11.1826 20.19 11.5481 20.5572 12.0015 20.5572C12.4546 20.5572 12.8201 20.19 12.8201 19.7383Z" fill="#333333"/>
<path d="M12.8201 16.3368V16.3181C12.8201 15.8664 12.4546 15.5102 12.0015 15.5102C11.5484 15.5102 11.1826 15.8839 11.1826 16.3368C11.1826 16.7885 11.5481 17.1554 12.0015 17.1554C12.4546 17.1554 12.8201 16.7885 12.8201 16.3368Z" fill="#333333"/>
<path d="M12.8201 23.1307V23.1228C12.8201 22.6697 12.4546 22.3073 12.0015 22.3073C11.5484 22.3073 11.1826 22.6793 11.1826 23.131C11.1826 23.5841 11.5481 23.9496 12.0015 23.9496C12.4546 23.9494 12.8201 23.5838 12.8201 23.1307Z" fill="#333333"/>
<path d="M21.6153 22.9714C22.0373 22.8026 22.2389 22.326 22.0716 21.9072L22.0653 21.8916C21.8997 21.4714 21.4248 21.2712 21.006 21.4447C20.5841 21.612 20.3856 22.0963 20.5529 22.5151C20.6808 22.8355 20.9873 23.0306 21.3122 23.0306C21.4123 23.0306 21.5169 23.0102 21.6153 22.9714Z" fill="#333333"/>
<path d="M20.4856 19.8806C20.9058 19.7136 21.1091 19.2367 20.9418 18.8182L20.9356 18.8009C20.7669 18.3806 20.2917 18.179 19.8745 18.3542C19.4543 18.5213 19.2544 19.0058 19.4231 19.4244C19.5496 19.7448 19.8575 19.9399 20.1825 19.9399C20.2826 19.9399 20.3872 19.9212 20.4856 19.8806Z" fill="#333333"/>
<path d="M19.2871 16.8149C19.7198 16.6853 19.9651 16.229 19.8355 15.7961L19.8307 15.7807C19.7009 15.3478 19.2494 15.1104 18.8136 15.24C18.3823 15.3696 18.137 15.8323 18.2683 16.2665C18.3732 16.6212 18.6996 16.8494 19.0512 16.8494C19.1292 16.8494 19.2074 16.8384 19.2871 16.8149Z" fill="#333333"/>
<path d="M18.2263 13.6994C18.6466 13.5322 18.8498 13.0555 18.6826 12.6367L18.6763 12.6214C18.5093 12.2026 18.0341 12.001 17.6153 12.1728C17.195 12.3415 16.9951 12.8258 17.1638 13.2446C17.2918 13.5634 17.5982 13.7587 17.9232 13.7587C18.0233 13.7587 18.1279 13.74 18.2263 13.6994Z" fill="#333333"/>
<path d="M16.7922 23.4962C17.2374 23.4086 17.5252 22.9774 17.4361 22.5336L17.4328 22.518C17.3437 22.0742 16.9093 21.7915 16.4718 21.8837C16.0266 21.971 15.7405 22.4117 15.8312 22.854C15.9092 23.2445 16.25 23.5133 16.6312 23.5133C16.6859 23.5135 16.7406 23.5087 16.7922 23.4962Z" fill="#333333"/>
<path d="M16.2075 20.2586C16.6575 20.2135 16.9856 19.812 16.9402 19.362L16.9388 19.3464C16.8949 18.8981 16.4948 18.57 16.0448 18.6228C15.5933 18.6667 15.2653 19.0762 15.3121 19.5262C15.3543 19.9481 15.7105 20.2634 16.1245 20.2634C16.1513 20.2634 16.1809 20.262 16.2075 20.2586Z" fill="#333333"/>
<path d="M15.7811 16.9949C16.2249 16.9073 16.5124 16.476 16.4234 16.0322L16.42 16.0166C16.3326 15.5729 15.8997 15.2933 15.4591 15.3823C15.0153 15.4697 14.7295 15.9086 14.8185 16.3526C14.8965 16.7431 15.2373 17.0102 15.6184 17.0102C15.6734 17.0102 15.7278 17.0054 15.7811 16.9949Z" fill="#333333"/>
<path d="M15.2751 13.7431C15.7203 13.6558 16.0078 13.2245 15.9188 12.7807L15.9157 12.7651C15.8266 12.3214 15.3877 12.0386 14.9547 12.1308C14.5095 12.2182 14.2234 12.6574 14.3141 13.1009C14.3921 13.4899 14.7327 13.7587 15.1141 13.7587C15.1685 13.7587 15.2235 13.7542 15.2751 13.7431Z" fill="#333333"/>
<path d="M3.45003 22.5149L3.45627 22.4993C3.62499 22.0807 3.41883 21.612 2.99691 21.4445C2.58291 21.2758 2.09835 21.4867 1.93131 21.9072C1.76403 22.3258 1.96563 22.8024 2.38755 22.9714C2.48595 23.0102 2.59059 23.0306 2.69067 23.0306C3.01539 23.0306 3.32163 22.8353 3.45003 22.5149Z" fill="#333333"/>
<path d="M4.57973 19.4244L4.58597 19.409C4.75469 18.9902 4.54853 18.5215 4.12805 18.3542C3.71261 18.1855 3.22973 18.3965 3.06101 18.8184C2.89373 19.237 3.09677 19.7136 3.51725 19.8809C3.61565 19.9214 3.72029 19.9402 3.82037 19.9402C4.14509 19.9399 4.45301 19.7448 4.57973 19.4244Z" fill="#333333"/>
<path d="M5.73427 16.2665L5.73907 16.2494C5.87035 15.8165 5.62027 15.3696 5.18899 15.24C4.74835 15.1025 4.29523 15.3619 4.16707 15.7961C4.03723 16.229 4.28251 16.6853 4.71547 16.8149C4.79515 16.8384 4.87315 16.8494 4.95139 16.8494C5.30299 16.8494 5.62963 16.6212 5.73427 16.2665Z" fill="#333333"/>
<path d="M6.83901 13.2449L6.84525 13.2293C7.01397 12.809 6.80781 12.3418 6.38733 12.173C5.97477 12.0043 5.48901 12.2167 5.32029 12.637C5.15301 13.0558 5.35605 13.5322 5.77653 13.6997C5.87493 13.7402 5.97957 13.759 6.07965 13.759C6.40461 13.7587 6.71061 13.5636 6.83901 13.2449Z" fill="#333333"/>
<path d="M8.17159 22.8542L8.17639 22.8386C8.26543 22.3949 7.97647 21.9715 7.53103 21.8839C7.09039 21.7932 6.65767 22.0901 6.56695 22.5338C6.47791 22.9776 6.76543 23.4089 7.21063 23.4965C7.26223 23.509 7.31695 23.5135 7.37143 23.5135C7.75279 23.5135 8.09335 23.2447 8.17159 22.8542Z" fill="#333333"/>
<path d="M8.69041 19.5259L8.69185 19.5103C8.73865 19.0603 8.40913 18.6665 7.95745 18.6228C7.50913 18.5698 7.10737 18.9134 7.06225 19.362C7.01713 19.812 7.34521 20.2135 7.79521 20.2586C7.82161 20.262 7.85137 20.2634 7.87801 20.2634C8.29201 20.2634 8.64841 19.9478 8.69041 19.5259Z" fill="#333333"/>
<path d="M9.18404 16.3526L9.18716 16.337C9.2762 15.8933 8.98724 15.4699 8.54324 15.3823C8.10884 15.2854 7.6682 15.5885 7.57916 16.0322C7.49012 16.476 7.77764 16.9073 8.2214 16.9949C8.27444 17.0057 8.32916 17.0102 8.38388 17.0102C8.76524 17.0102 9.1058 16.7431 9.18404 16.3526Z" fill="#333333"/>
<path d="M9.68917 13.1009L9.69397 13.0838C9.78301 12.6415 9.49405 12.2182 9.04861 12.1308C8.61277 12.0386 8.17357 12.3386 8.08453 12.7807C7.99549 13.2245 8.28301 13.6558 8.72845 13.7431C8.78005 13.7542 8.83453 13.7587 8.88925 13.7587C9.27013 13.7587 9.61093 13.4899 9.68917 13.1009Z" fill="#333333"/>
</g>
<defs>
<clipPath id="clip0">
<rect width="24" height="24" fill="white"/>
</clipPath>
</defs>
</svg>
