<svg width="25" height="24" viewBox="0 0 25 24" fill="none" xmlns="http://www.w3.org/2000/svg">
<path d="M20.1361 3.74014C21.1773 3.74014 22.0213 2.90288 22.0213 1.87007C22.0213 0.837258 21.1773 0 20.1361 0C19.095 0 18.251 0.837258 18.251 1.87007C18.251 2.90288 19.095 3.74014 20.1361 3.74014Z" fill="white"/>
<path d="M5.70302 3.74014C6.74416 3.74014 7.58817 2.90288 7.58817 1.87007C7.58817 0.837258 6.74416 0 5.70302 0C4.66188 0 3.81787 0.837258 3.81787 1.87007C3.81787 2.90288 4.66188 3.74014 5.70302 3.74014Z" fill="white"/>
<path d="M24.378 6.49517C24.2815 5.38152 23.3413 4.50704 22.1936 4.50704H18.0791C16.9314 4.50704 15.9912 5.38152 15.8947 6.49517H15.8853V13.1815C15.8853 13.5721 16.2045 13.8888 16.5983 13.8888C16.992 13.8888 17.3113 13.5721 17.3113 13.1815V6.68359H17.7062V13.5379V13.7004V22.9222C17.7062 23.5172 18.1925 23.9994 18.7921 23.9994C19.3919 23.9994 19.878 23.517 19.878 22.9222V13.7007H20.3944V22.9225C20.3944 23.5175 20.8808 23.9997 21.4804 23.9997C22.0799 23.9997 22.5663 23.5172 22.5663 22.9225V13.7007V13.5382V6.68359H22.9612V13.1815C22.9612 13.5721 23.2804 13.8888 23.6742 13.8888C24.068 13.8888 24.3872 13.5721 24.3872 13.1815V6.49517H24.378Z" fill="white"/>
<path d="M9.92975 6.37655C9.77902 5.32055 8.86634 4.50731 7.76011 4.50731H3.64554C2.53932 4.50731 1.62663 5.32055 1.47591 6.37683L0.0179035 12.7368C-0.0694158 13.1178 0.171129 13.4968 0.555167 13.5834C0.939205 13.6701 1.3213 13.4314 1.40861 13.0505L2.86829 6.68359H3.83965L1.85049 15.595H3.77319V23.2174C3.77319 23.6497 4.12636 23.9997 4.56184 23.9997H4.67474C5.11023 23.9997 5.4634 23.6494 5.4634 23.2174V15.5953H5.70255H5.86523V23.2177C5.86523 23.6499 6.2184 24 6.65389 24H6.76679C7.20227 24 7.55544 23.6497 7.55544 23.2177V15.5953H9.47813L7.56629 6.68359H8.53765L9.99732 13.0505C10.0846 13.4314 10.4667 13.6701 10.8508 13.5834C11.2348 13.4968 11.4754 13.1178 11.388 12.7368L9.92975 6.37655Z" fill="white"/>
<path d="M14.2017 0H13.0894V24H14.2017V0Z" fill="white"/>
</svg>
